<svg width="12" height="19" viewBox="0 0 12 19" fill="none" xmlns="http://www.w3.org/2000/svg">
<path d="M11.7111 10.2378C11.4155 9.74594 10.6281 9.253 9.64323 10.0404C8.26468 11.1234 6.00051 11.1234 6.00051 11.1234C6.00051 11.1234 3.73634 11.1234 2.35779 10.0404C1.27479 9.253 0.487341 9.74489 0.289953 10.2378C-0.201936 11.2227 0.388119 11.6164 1.56929 12.4038C2.65229 13.0931 4.12901 13.2894 5.01462 13.3887L4.22823 14.1761C3.14523 15.2591 2.06223 16.3421 1.27479 17.0314C1.15917 17.1275 1.06614 17.2478 1.00228 17.3839C0.93843 17.52 0.905328 17.6685 0.905328 17.8188C0.905328 17.9692 0.93843 18.1176 1.00228 18.2537C1.06614 18.3898 1.15917 18.5102 1.27479 18.6063L1.37295 18.7044C1.57034 18.9018 1.8659 19 2.16145 19C2.45701 19 2.75256 18.9018 2.9489 18.7044L5.90234 15.8492C6.98534 16.9322 8.06834 18.0152 8.85579 18.7044C9.09269 18.8956 9.38791 18.9999 9.69231 18.9999C9.99672 18.9999 10.2919 18.8956 10.5288 18.7044L10.627 18.6063C11.1189 18.2126 11.1189 17.5233 10.627 17.0314L7.67462 14.1761L6.88718 13.4868C7.87201 13.3887 9.34873 13.1913 10.3325 12.502C11.6118 11.7146 12.203 11.2227 11.7111 10.2378ZM5.90234 2.46156C7.2809 2.46156 8.3639 3.54456 8.3639 4.82389C8.3639 6.10322 7.2809 7.18622 5.90234 7.18622C4.52379 7.18622 3.44079 6.10322 3.44079 4.82389C3.44079 3.54456 4.52379 2.46156 5.90234 2.46156ZM5.90234 9.64778C8.6584 9.64778 10.9226 7.48178 10.9226 4.82389C10.9226 2.166 8.6584 0 5.90234 0C3.14629 0 0.882119 2.166 0.882119 4.82389C0.882119 7.48178 3.14629 9.64778 5.90234 9.64778Z" fill="#313140"/>
</svg>
