<svg width="16" height="16" viewBox="0 0 16 16" fill="none" xmlns="http://www.w3.org/2000/svg">
<path d="M8.037 0C4.86758 0 2 2.60892 2 6.68535C2 9.29427 3.8111 12.3108 7.50877 15.8166C7.81062 16.0611 8.18793 16.0611 8.48978 15.8166C12.1874 12.3108 13.9985 9.21274 13.9985 6.68535C14.074 2.60892 11.2064 0 8.037 0ZM8.037 8.15287C7.20691 8.15287 6.52775 7.41911 6.52775 6.52229C6.52775 5.62548 7.20691 4.89172 8.037 4.89172C8.86709 4.89172 9.54625 5.62548 9.54625 6.52229C9.54625 7.41911 8.86709 8.15287 8.037 8.15287Z" fill="#3D95FB"/>
</svg>
